<?xml version="1.0" encoding="UTF-8" standalone="no"?>
<!-- Created with Inkscape (http://www.inkscape.org/) -->

<svg
   width="210mm"
   height="297mm"
   viewBox="0 0 210 297"
   version="1.1"
   id="svg5"
   xml:space="preserve"
   inkscape:version="1.2.1 (9c6d41e410, 2022-07-14)"
   sodipodi:docname="drivetrain3wheels.svg"
   xmlns:inkscape="http://www.inkscape.org/namespaces/inkscape"
   xmlns:sodipodi="http://sodipodi.sourceforge.net/DTD/sodipodi-0.dtd"
   xmlns="http://www.w3.org/2000/svg"
   xmlns:svg="http://www.w3.org/2000/svg"><sodipodi:namedview
     id="namedview7"
     pagecolor="#ffffff"
     bordercolor="#000000"
     borderopacity="0.25"
     inkscape:showpageshadow="2"
     inkscape:pageopacity="0.0"
     inkscape:pagecheckerboard="0"
     inkscape:deskcolor="#d1d1d1"
     inkscape:document-units="mm"
     showgrid="false"
     inkscape:zoom="1.1893044"
     inkscape:cx="7.1470349"
     inkscape:cy="557.46872"
     inkscape:window-width="2880"
     inkscape:window-height="1514"
     inkscape:window-x="2869"
     inkscape:window-y="174"
     inkscape:window-maximized="1"
     inkscape:current-layer="g2509" /><defs
     id="defs2" /><g
     inkscape:label="Livello 1"
     inkscape:groupmode="layer"
     id="layer1"><g
       id="g2509"
       transform="matrix(0.2896721,0,0,0.27980009,-37.082753,-3.0646171)"><path
         d="m 209.95,320.59 v -3.37 h 3.21 l 94.32999,91.82001 V 412.25 H 304.28 Z"
         style="fill:#000000;fill-opacity:1;fill-rule:nonzero;stroke:none"
         id="path2511" /></g><g
       id="g2541"
       transform="matrix(0.26458333,0,0,0.26458333,59.388095,107.35803)"><path
         d="M 0,0 C 25.35,0 46.040001,20.67 46.040001,46.150002 46.040001,71.790001 25.35,92.470001 0,92.470001 c -25.51,0 -46.200001,-20.68 -46.200001,-46.319999 C -46.200001,20.67 -25.51,0 0,0 Z"
         style="fill:#808080;fill-opacity:1;fill-rule:nonzero;stroke:none"
         id="path2543" /></g><g
       id="g2545"
       transform="matrix(0.26458333,0,0,0.26458333,59.388095,107.35803)"><path
         d="M 0,0 C 25.35,0 46.040001,20.67 46.040001,46.150002 46.040001,71.790001 25.35,92.470001 0,92.470001 c -25.51,0 -46.200001,-20.68 -46.200001,-46.319999 C -46.200001,20.67 -25.51,0 0,0 h 0.16 z"
         style="fill:none;stroke:#000000;stroke-width:3.369;stroke-linecap:butt;stroke-linejoin:miter;stroke-miterlimit:10;stroke-dasharray:none;stroke-opacity:1"
         id="path2547" /></g><g
       id="g2561"
       transform="matrix(0.26458333,0,0,0.26458333,23.453336,154.31245)" /><g
       id="g2565"
       transform="matrix(0.26458333,0,0,0.26458333,22.897164,59.427632)"><path
         d="M 0,0 C 30.639999,0 55.34,13.78 55.34,30.77 55.34,47.59 30.639999,61.369999 0,61.369999 -30.48,61.369999 -55.349998,47.59 -55.349998,30.77 -55.349998,13.78 -30.48,0 0,0 Z"
         style="fill:#808080;fill-opacity:1;fill-rule:nonzero;stroke:none"
         id="path2567" /></g><g
       id="g2569"
       transform="matrix(0.26458333,0,0,0.26458333,22.897164,59.427632)"><path
         d="M 0,0 C 30.639999,0 55.34,13.78 55.34,30.77 55.34,47.59 30.639999,61.369999 0,61.369999 -30.48,61.369999 -55.349998,47.59 -55.349998,30.77 -55.349998,13.78 -30.48,0 0,0 h 0.16 z"
         style="fill:none;stroke:#000000;stroke-width:3.369;stroke-linecap:butt;stroke-linejoin:miter;stroke-miterlimit:10;stroke-dasharray:none;stroke-opacity:1"
         id="path2571" /></g><g
       id="g2573"
       transform="matrix(0.26458333,0,0,0.26458333,22.897164,55.101694)"><path
         d="m 0,0 c 30.639999,0 55.34,13.78 55.34,30.610001 0,16.989997 -24.700001,30.77 -55.34,30.77 -30.48,0 -55.349998,-13.780003 -55.349998,-30.77 C -55.349998,13.78 -30.48,0 0,0 Z"
         style="fill:#ffffff;fill-opacity:1;fill-rule:nonzero;stroke:none"
         id="path2575" /></g><g
       id="g2577"
       transform="matrix(0.26458333,0,0,0.26458333,22.897164,55.101694)"><path
         d="m 0,0 c 30.639999,0 55.34,13.78 55.34,30.610001 0,16.989997 -24.700001,30.77 -55.34,30.77 -30.48,0 -55.349998,-13.780003 -55.349998,-30.77 C -55.349998,13.78 -30.48,0 0,0 h 0.16 z"
         style="fill:none;stroke:#000000;stroke-width:3.369;stroke-linecap:butt;stroke-linejoin:miter;stroke-miterlimit:10;stroke-dasharray:none;stroke-opacity:1"
         id="path2579" /></g><g
       id="g2581"
       transform="matrix(0.26458333,0,0,0.26458333,84.049905,179.94647)"><path
         d="M 0,0 C 30.48,0 55.349998,13.78 55.349998,30.77 55.349998,47.59 30.48,61.369999 0,61.369999 -30.48,61.369999 -55.349998,47.59 -55.349998,30.77 -55.349998,13.78 -30.48,0 0,0 Z"
         style="fill:#808080;fill-opacity:1;fill-rule:nonzero;stroke:none"
         id="path2583" /></g><g
       id="g2585"
       transform="matrix(0.26458333,0,0,0.26458333,84.049905,179.94647)"><path
         d="M 0,0 C 30.48,0 55.349998,13.78 55.349998,30.77 55.349998,47.59 30.48,61.369999 0,61.369999 -30.48,61.369999 -55.349998,47.59 -55.349998,30.77 -55.349998,13.78 -30.48,0 0,0 h 0.16 z"
         style="fill:none;stroke:#000000;stroke-width:3.369;stroke-linecap:butt;stroke-linejoin:miter;stroke-miterlimit:10;stroke-dasharray:none;stroke-opacity:1"
         id="path2587" /></g><g
       id="g2589"
       transform="matrix(0.26458333,0,0,0.26458333,84.049905,175.62053)"><path
         d="m 0,0 c 30.48,0 55.349998,13.78 55.349998,30.610001 0,16.989997 -24.869998,30.77 -55.349998,30.77 -30.48,0 -55.349998,-13.780003 -55.349998,-30.77 C -55.349998,13.78 -30.48,0 0,0 Z"
         style="fill:#ffffff;fill-opacity:1;fill-rule:nonzero;stroke:none"
         id="path2591" /></g><g
       id="g2593"
       transform="matrix(0.26458333,0,0,0.26458333,84.049905,175.62053)"><path
         d="m 0,0 c 30.48,0 55.349998,13.78 55.349998,30.610001 0,16.989997 -24.869998,30.77 -55.349998,30.77 -30.48,0 -55.349998,-13.780003 -55.349998,-30.77 C -55.349998,13.78 -30.48,0 0,0 H 0.16 Z M 1.77,34.619999 V -312.64001"
         style="fill:none;stroke:#000000;stroke-width:3.369;stroke-linecap:butt;stroke-linejoin:miter;stroke-miterlimit:10;stroke-dasharray:none;stroke-opacity:1"
         id="path2595" /></g><g
       id="g2597"
       transform="matrix(0.26458333,0,0,0.26458333,84.049905,88.702264)"><path
         d="M 0,0 C 30.48,0 55.349998,13.79 55.349998,30.77 55.349998,47.759998 30.48,61.380001 0,61.380001 -30.48,61.380001 -55.349998,47.759998 -55.349998,30.77 -55.349998,13.79 -30.48,0 0,0 Z"
         style="fill:#808080;fill-opacity:1;fill-rule:nonzero;stroke:none"
         id="path2599" /></g><g
       id="g2601"
       transform="matrix(0.26458333,0,0,0.26458333,84.049905,88.702264)"><path
         d="M 0,0 C 30.48,0 55.349998,13.79 55.349998,30.77 55.349998,47.759998 30.48,61.380001 0,61.380001 -30.48,61.380001 -55.349998,47.759998 -55.349998,30.77 -55.349998,13.79 -30.48,0 0,0 h 0.16 z"
         style="fill:none;stroke:#000000;stroke-width:3.369;stroke-linecap:butt;stroke-linejoin:miter;stroke-miterlimit:10;stroke-dasharray:none;stroke-opacity:1"
         id="path2603" /></g><g
       id="g2605"
       transform="matrix(0.26458333,0,0,0.26458333,84.049905,84.378972)"><path
         d="M 0,0 C 30.48,0 55.349998,13.78 55.349998,30.77 55.349998,47.59 30.48,61.369999 0,61.369999 -30.48,61.369999 -55.349998,47.59 -55.349998,30.77 -55.349998,13.78 -30.48,0 0,0 Z"
         style="fill:#ffffff;fill-opacity:1;fill-rule:nonzero;stroke:none"
         id="path2607" /></g><g
       id="g2609"
       transform="matrix(0.26458333,0,0,0.26458333,84.049905,84.378972)"><path
         d="M 0,0 C 30.48,0 55.349998,13.78 55.349998,30.77 55.349998,47.59 30.48,61.369999 0,61.369999 -30.48,61.369999 -55.349998,47.59 -55.349998,30.77 -55.349998,13.78 -30.48,0 0,0 h 0.16 z"
         style="fill:none;stroke:#000000;stroke-width:3.369;stroke-linecap:butt;stroke-linejoin:miter;stroke-miterlimit:10;stroke-dasharray:none;stroke-opacity:1"
         id="path2611" /></g><g
       id="g2613"
       transform="matrix(0.26458333,0,0,0.26458333,61.171384,109.18101)"><path
         d="M 0,0 C 25.51,0 46.360001,20.68 46.360001,46.32 46.360001,71.790001 25.51,92.629997 0,92.629997 -25.67,92.629997 -46.360001,71.790001 -46.360001,46.32 -46.360001,20.68 -25.67,0 0,0 Z"
         style="fill:#ffffff;fill-opacity:1;fill-rule:nonzero;stroke:none"
         id="path2615" /></g><g
       id="g2617"
       transform="matrix(0.26458333,0,0,0.26458333,61.171384,109.18101)"><path
         d="M 0,0 C 25.51,0 46.360001,20.68 46.360001,46.32 46.360001,71.790001 25.51,92.629997 0,92.629997 -25.67,92.629997 -46.360001,71.790001 -46.360001,46.32 -46.360001,20.68 -25.67,0 0,0 h 0.16 z"
         style="fill:none;stroke:#000000;stroke-width:3.369;stroke-linecap:butt;stroke-linejoin:miter;stroke-miterlimit:10;stroke-dasharray:none;stroke-opacity:1"
         id="path2619" /></g><g
       id="g2621"
       transform="matrix(0.26458333,0,0,0.26458333,-38.266966,-5.9127374)"><path
         d="m 375.51001,493.81 v -1.60001 h 1.75998 L 417.38,532.27002 V 533.88 h -1.6 z"
         style="fill:#000000;fill-opacity:1;fill-rule:nonzero;stroke:none"
         id="path2623" /></g><g
       id="g2625"
       transform="matrix(0.26458333,0,0,0.26458333,-38.266966,-5.9127374)"><path
         d="m 379.20001,490.45001 v -1.6 h 1.59998 l 40.27002,40.22 v 1.59997 H 419.47 Z"
         style="fill:#000000;fill-opacity:1;fill-rule:nonzero;stroke:none"
         id="path2627" /></g><g
       id="g2629"
       transform="matrix(0.26458333,0,0,0.26458333,-38.266966,-5.9127374)"><path
         d="M 371.82001,486.76001 V 485.16 h 1.75998 L 380,499.10001 v 1.60998 h -1.60001 z"
         style="fill:#000000;fill-opacity:1;fill-rule:nonzero;stroke:none"
         id="path2631" /></g><g
       id="g2633"
       transform="matrix(0.26458333,0,0,0.26458333,-38.266966,-5.9127374)"><path
         d="M 372.29999,486.76001 V 485.16 H 373.91 l 13.47,6.57001 v 1.59998 h -1.6 z"
         style="fill:#000000;fill-opacity:1;fill-rule:nonzero;stroke:none"
         id="path2635" /></g><g
       id="g2641"
       transform="matrix(0.26458333,0,0,0.26458333,23.439341,79.021778)"><path
         d="M 0,0 C 13.79,0 25.02,11.22 25.02,25.16 25.02,38.939999 13.79,50.32 0,50.32 -13.8,50.32 -25.030001,38.939999 -25.030001,25.16 -25.030001,11.22 -13.8,0 0,0 Z"
         style="fill:#000000;fill-opacity:1;fill-rule:nonzero;stroke:none"
         id="path2643" /></g><g
       id="g2645"
       transform="matrix(0.26458333,0,0,0.26458333,23.439341,79.021778)"><path
         d="M 0,0 C 13.79,0 25.02,11.22 25.02,25.16 25.02,38.939999 13.79,50.32 0,50.32 -13.8,50.32 -25.030001,38.939999 -25.030001,25.16 -25.030001,11.22 -13.8,0 0,0 h 0.16 z"
         style="fill:none;stroke:#000000;stroke-width:1.765;stroke-linecap:butt;stroke-linejoin:miter;stroke-miterlimit:10;stroke-dasharray:none;stroke-opacity:1"
         id="path2647" /></g><g
       id="g2649"
       transform="matrix(0.26458333,0,0,0.26458333,84.602889,138.01265)"><path
         d="M 0,0 C 13.79,0 25.02,11.22 25.02,25 25.02,38.779999 13.79,50 0,50 -13.8,50 -25.030001,38.779999 -25.030001,25 -25.030001,11.22 -13.8,0 0,0 Z"
         style="fill:#000000;fill-opacity:1;fill-rule:nonzero;stroke:none"
         id="path2651" /></g><g
       id="g2653"
       transform="matrix(0.26458333,0,0,0.26458333,84.602889,138.01265)"><path
         d="M 0,0 C 13.79,0 25.02,11.22 25.02,25 25.02,38.779999 13.79,50 0,50 -13.8,50 -25.030001,38.779999 -25.030001,25 -25.030001,11.22 -13.8,0 0,0 h 0.16 z"
         style="fill:none;stroke:#000000;stroke-width:1.765;stroke-linecap:butt;stroke-linejoin:miter;stroke-miterlimit:10;stroke-dasharray:none;stroke-opacity:1"
         id="path2655" /></g><g
       id="g2657"
       transform="matrix(0.26650549,0,0,0.21315545,15.711194,59.708843)"><path
         d="m 0,0 c -4.33,3.85 -6.74,7.7 -6.9,11.7 -0.32,4.01 0,7.53 0.96,10.580001 0.96,3.199999 2.57,5.929998 4.81,8.01 2.25,2.239998 5.78,4.169998 10.43,5.77"
         style="fill:none;stroke:#000000;stroke-width:0.963;stroke-linecap:square;stroke-linejoin:miter;stroke-miterlimit:10;stroke-dasharray:none;stroke-opacity:1"
         id="path2659" /></g><g
       id="g2661"
       transform="matrix(0.26458333,0,0,0.26458333,17.877801,67.25172)"><path
         d="m 0,0 -1.6,-6.73 0.16,-0.16 6.25,6.25 c 2.41,1.6 4.65,3.2 6.9,4.8 C 9.14,4 6.58,4 4.01,3.84 L -3.53,5.29 -3.69,5.13 Z"
         style="fill:#000000;fill-opacity:1;fill-rule:nonzero;stroke:none"
         id="path2663" /></g><g
       id="g2665"
       transform="matrix(0.26458333,0,0,0.26458333,-38.266966,-5.9127374)"><path
         d="m 358.17999,498.94 c -6.57,-4 -9.13998,-9.76999 -7.69998,-17.29999 1.60999,-7.38 6.73999,-11.06002 15.72,-10.74002"
         style="fill:none;stroke:#000000;stroke-width:0.963;stroke-linecap:square;stroke-linejoin:miter;stroke-miterlimit:10;stroke-dasharray:none;stroke-opacity:1"
         id="path2667" /></g><g
       id="g2669"
       transform="matrix(0.26458333,0,0,0.26458333,58.242452,118.67955)"><path
         d="m 0,0 -3.05,-5.77 0.16,-0.16 8.51,3.85 c 2.88,0.8 5.93,1.6 8.98,2.4 C 11.55,0.96 8.5,1.6 5.46,2.24 L -3.21,5.61 -3.37,5.45 Z"
         style="fill:#000000;fill-opacity:1;fill-rule:nonzero;stroke:none"
         id="path2671" /></g><g
       id="g2673"
       transform="matrix(0.26458333,0,0,0.26458333,58.41178,118.67955)"><path
         d="m 0,0 -1.44,-2.89 v 0 l 4.33,1.93 c 1.44,0.32 3.05,0.8 4.49,1.12 C 5.78,0.48 4.33,0.8 2.89,1.12 l -4.49,1.6 v 0 z"
         style="fill:#000000;fill-opacity:1;fill-rule:nonzero;stroke:none"
         id="path2675" /></g><g
       id="g2677"
       transform="matrix(0.26458333,0,0,0.26458333,-38.266966,-5.9127374)"><path
         d="m 372.62,702.62 v -0.32001 h 0.48001 l 90.97,16.34002 v 0.32001 h -0.33002 z"
         style="fill:#000000;fill-opacity:1;fill-rule:nonzero;stroke:none"
         id="path2679" /></g><g
       id="g2681"
       transform="matrix(0.26458333,0,0,0.26458333,-38.266966,-5.9127374)"><path
         d="m 372.62,702.62 v -0.32001 h 0.48001 l 90.97,16.34002 v 0.32001 h -0.33002"
         style="fill:none;stroke:#000000;stroke-width:0.963;stroke-linecap:butt;stroke-linejoin:miter;stroke-miterlimit:4;stroke-dasharray:none;stroke-opacity:1"
         id="path2683" /></g><g
       id="g2685"
       transform="matrix(0.26458333,0,0,0.26458333,-38.266966,-5.9127374)"><path
         d="m 363.48001,700.53003 28.87,5.28998"
         style="fill:none;stroke:#000000;stroke-width:0.963;stroke-linecap:butt;stroke-linejoin:miter;stroke-miterlimit:4;stroke-dasharray:none;stroke-opacity:1"
         id="path2687" /></g><g
       id="g2689"
       transform="matrix(0.26458333,0,0,0.26458333,65.11897,180.7508)"><path
         d="m 0,0 -2.57,-6.73 h 0.16 l 9.15,5.77 c 3.37,1.28 6.58,2.72 9.94,4.17 C 13.16,3.37 9.47,3.37 5.94,3.53 L -4.65,5.61 -4.81,5.45 Z"
         style="fill:#000000;fill-opacity:1;fill-rule:nonzero;stroke:none"
         id="path2691" /></g><g
       id="g2693"
       transform="matrix(0.26458333,0,0,0.26458333,65.372968,180.83547)"><path
         d="m 0,0 -1.12,-2.88 0.16,-0.16 3.85,2.56 C 4.33,0 5.62,0.64 7.06,1.28 c -1.44,0 -3.05,0 -4.49,0.16 l -4.49,0.81 h -0.16 z"
         style="fill:#000000;fill-opacity:1;fill-rule:nonzero;stroke:none"
         id="path2695" /></g><g
       id="g2697"
       transform="matrix(0.26458333,0,0,0.26458333,-43.038308,-12.292629)"><path
         d="m 268.98999,583.39001 68.5,58.16999"
         style="fill:none;stroke:#000000;stroke-width:0.963;stroke-linecap:butt;stroke-linejoin:miter;stroke-miterlimit:4;stroke-dasharray:none;stroke-opacity:1"
         id="path2699" /></g><g
       id="g2701"
       transform="matrix(0.26458333,0,0,0.26458333,45.872277,157.15712)"><path
         d="M 0,0 1.13,-7.05 H 1.45 L 6.58,2.41 C 8.67,5.29 10.91,8.17 13,11.06 9.79,9.3 6.74,7.69 3.53,5.93 L -6.73,2.57 V 2.24 Z"
         style="fill:#000000;fill-opacity:1;fill-rule:nonzero;stroke:none"
         id="path2703" /></g><g
       id="g2705"
       transform="matrix(0.26458333,0,0,0.26458333,-43.038308,-12.292629)"><path
         d="m 346.95001,693.47998 -68.5,-57.84998"
         style="fill:none;stroke:#000000;stroke-width:0.963;stroke-linecap:butt;stroke-linejoin:miter;stroke-miterlimit:4;stroke-dasharray:none;stroke-opacity:1"
         id="path2707" /></g><g
       id="g2709"
       transform="matrix(0.26458333,0,0,0.26458333,30.97359,156.18346)"><path
         d="m 0,0 -1.12,7.05 h -0.16 l -5.13,-9.46 c -2.25,-2.88 -4.33,-5.77 -6.58,-8.65 3.21,1.76 6.42,3.36 9.47,5.13 l 10.26,3.36 0.16,0.16 z"
         style="fill:#000000;fill-opacity:1;fill-rule:nonzero;stroke:none"
         id="path2711" /></g><g
       id="g2749"
       transform="matrix(0.26458333,0,0,0.26458333,56.87238,102.4628)"><path
         d="m 0,0 c -4.17,-0.16 -4.81,-2.57 -4.81,-3.53 0,-2.72 3.69,-3.04 4.81,-3.04 z m 0.48,0 v -7.7 c 0,-0.64 0,-0.64 -0.48,-0.64 -2.72,0 -5.45,1.45 -5.45,4.81 0,3.2 2.89,5.77 6.26,5.77 3.68,0 6.41,-2.89 6.41,-6.09 0,-3.36 -3.05,-4.49 -3.53,-4.49 -0.32,0 -0.48,0.16 -0.48,0.32 0,0.16 0.32,0.32 0.48,0.32 2.89,0.97 2.89,3.53 2.89,3.69 0,1.44 -0.96,2.56 -1.93,3.2 C 3.37,0 1.45,0 0.48,0 Z"
         style="fill:#000000;fill-opacity:1;fill-rule:nonzero;stroke:none"
         id="path2751" /></g><g
       id="g2753"
       transform="matrix(0.26458333,0,0,0.26458333,56.192406,99.19785)"><path
         d="m 0,0 h 7.37 c 1.29,0 1.29,0.32 1.29,2.08 h 0.8 c 0,-0.96 0,-2.25 0,-3.05 0,-0.64 0,-2.08 0,-3.04 h -0.8 c 0,1.76 0,2.08 -1.29,2.08 H 2.24 c -2.88,0 -4.33,-1.92 -4.33,-3.68 0,-1.77 1.45,-2.09 3.05,-2.09 h 6.41 c 1.29,0 1.29,0.32 1.29,2.25 h 0.8 c 0,-0.96 0,-2.41 0,-3.21 0,-0.64 0,-2.08 0,-3.04 h -0.8 c 0,1.44 0,2.08 -0.8,2.08 h -5.3 c -2.4,0 -3.2,0 -4.33,0.96 -0.48,0.32 -0.96,1.28 -0.96,2.89 0,1.92 1.12,3.2 2.89,4 h -2.89 l 0.32,3.85 h 0.8 C -1.61,0.16 -1.45,0 0,0 Z"
         style="fill:#000000;fill-opacity:1;fill-rule:nonzero;stroke:none"
         id="path2755" /></g><g
       id="g2757"
       transform="matrix(0.26458333,0,0,0.26458333,57.422716,94.32157)"><path
         d="m 0,0 c 0,2.4 -2.73,2.4 -3.37,2.4 -0.64,0 -1.6,0 -2.24,-0.48 C -5.93,1.76 -6.74,1.12 -6.74,0 c 0,-2.4 2.73,-2.4 3.37,-2.4 0.81,0 1.61,0 2.41,0.48 C -0.64,-1.76 0,-1.12 0,0 Z M 1.12,3.2 C 0.96,3.2 0.48,3.2 -0.16,2.72 0.64,1.6 0.64,0.48 0.64,0 c 0,-2.56 -1.76,-4.49 -4.01,-4.49 -0.96,0 -1.92,0.48 -2.56,1.12 -0.97,-0.96 -1.13,-1.92 -1.13,-2.56 0,0 0,-0.16 0,-0.16 0.16,0.32 0.48,0.32 0.81,0.32 0.48,0 0.8,-0.32 0.8,-0.8 0,-0.16 -0.32,-0.8 -0.97,-0.8 -0.32,0 -1.28,0.48 -1.28,1.44 0,0.64 0.16,1.76 1.28,3.04 -0.96,1.13 -0.96,2.25 -0.96,2.89 0,2.56 1.93,4.49 4.01,4.49 1.29,0 2.25,-0.64 2.89,-1.29 0.32,0.32 1.28,0.81 2.25,0.81 0.8,0 1.92,-0.33 2.4,-1.29 0.48,1.77 1.77,2.57 2.89,2.57 1.93,0 3.53,-2.73 3.53,-6.09 0,-3.21 -1.44,-6.09 -3.69,-6.09 -0.96,0 -2.41,0.32 -3.05,1.76 -0.8,1.44 -0.8,3.05 -0.8,4.81 0,0.64 0,1.76 0,2.08 C 2.89,2.56 2.09,3.2 1.12,3.2 Z m 8.83,-4 C 9.95,1.92 8.5,3.85 7.06,3.85 5.78,3.85 4.65,2.88 4.65,1.6 V 0 c 0,-2.4 0,-5.45 2.41,-5.45 1.44,0 2.89,1.92 2.89,4.65 z"
         style="fill:#000000;fill-opacity:1;fill-rule:nonzero;stroke:none"
         id="path2759" /></g><g
       id="g2761"
       transform="matrix(0.26458333,0,0,0.26458333,55.470091,91.01428)"><path
         d="m 0,0 0.32,3.85 h 0.81 c 0,-1.93 0.16,-2.09 1.6,-2.09 h 7.38 c 1.28,0 1.28,0.32 1.28,2.09 h 0.8 c 0,-0.81 0,-2.25 0,-3.05 0,-0.96 0,-1.92 0,-2.88 h -0.8 C 11.39,-0.16 11.23,0 10.11,0 Z m -4.81,-0.16 c -0.96,0 -1.44,0.64 -1.44,1.44 0,0.8 0.64,1.44 1.44,1.44 0.8,0 1.44,-0.64 1.44,-1.44 0,-0.8 -0.64,-1.44 -1.44,-1.44 z"
         style="fill:#000000;fill-opacity:1;fill-rule:nonzero;stroke:none"
         id="path2763" /></g><g
       id="g2765"
       transform="matrix(0.26458333,0,0,0.26458333,56.192406,89.4453)"><path
         d="m 0,0 h 7.37 c 1.29,0 1.29,0.32 1.29,2.08 h 0.8 c 0,-0.96 0,-2.25 0,-3.05 0,-0.64 0,-2.08 0,-3.04 h -0.8 c 0,1.76 0,2.08 -1.29,2.08 H 2.24 c -2.88,0 -4.33,-1.92 -4.33,-3.68 0,-1.77 1.45,-2.09 3.05,-2.09 h 6.41 c 1.29,0 1.29,0.32 1.29,2.25 h 0.8 c 0,-0.96 0,-2.41 0,-3.21 0,-0.64 0,-2.08 0,-3.04 h -0.8 c 0,1.44 0,2.08 -0.8,2.08 h -5.3 c -2.4,0 -3.2,0 -4.33,0.96 -0.48,0.32 -0.96,1.28 -0.96,2.89 0,1.92 1.12,3.2 2.89,4 h -2.89 l 0.32,3.85 h 0.8 C -1.61,0.16 -1.45,0 0,0 Z"
         style="fill:#000000;fill-opacity:1;fill-rule:nonzero;stroke:none"
         id="path2767" /></g><g
       id="g2769"
       transform="matrix(0.26458333,0,0,0.26458333,56.87238,85.37601)"><path
         d="m 0,0 c -4.17,-0.16 -4.81,-2.57 -4.81,-3.53 0,-2.72 3.69,-3.04 4.81,-3.04 z m 0.48,0 v -7.7 c 0,-0.64 0,-0.64 -0.48,-0.64 -2.72,0 -5.45,1.45 -5.45,4.81 0,3.2 2.89,5.77 6.26,5.77 3.68,0 6.41,-2.89 6.41,-6.09 0,-3.36 -3.05,-4.49 -3.53,-4.49 -0.32,0 -0.48,0.16 -0.48,0.32 0,0.16 0.32,0.32 0.48,0.32 2.89,0.97 2.89,3.53 2.89,3.69 0,1.44 -0.96,2.56 -1.93,3.2 C 3.37,0 1.45,0 0.48,0 Z"
         style="fill:#000000;fill-opacity:1;fill-rule:nonzero;stroke:none"
         id="path2771" /></g><g
       id="g2797"
       transform="matrix(0.26458333,0,0,0.26458333,25.57849,62.324108)"><path
         d="m 0,0 c -1.12,0 -1.92,0.48 -1.92,1.12 0,0.64 0.8,1.45 1.28,1.45 0.32,0 0.64,-0.16 0.96,-0.49 0.32,-0.32 1.13,-0.96 2.25,-0.96 1.12,0 2.73,0.64 4.01,1.45 1.12,0.8 2.08,1.92 2.08,3.2 0,1.6 -0.96,2.4 -2.56,2.56 -0.64,-0.16 -2.41,-0.8 -3.21,-0.8 -0.32,0 -0.64,0 -0.64,0.48 0,0.16 0.16,0.48 0.48,0.65 0.64,0.32 2.4,0.64 3.37,0.64 1.28,0.96 2.56,2.08 2.56,3.84 0,1.76 -1.6,2.41 -3.2,2.41 -3.37,0 -6.26,-2.89 -6.74,-2.89 -0.32,0 -0.48,0.16 -0.48,0.48 0,0.48 0.32,0.64 0.64,0.8 2.08,1.45 5.29,2.41 7.86,2.41 1.92,0 3.85,-0.64 3.85,-2.89 C 10.59,11.54 9.31,10.26 7.7,9.3 9.31,8.98 10.59,7.85 10.59,6.25 10.59,4.01 8.99,2.73 6.9,1.76 5.62,1.12 1.77,0 0,0 Z"
         style="fill:#000000;fill-opacity:1;fill-rule:nonzero;stroke:none"
         id="path2799" /></g><g
       id="g2801"
       transform="matrix(0.26458333,0,0,0.26458333,27.74278,59.527458)"><path
         d="m 0,0 c -0.48,-0.16 -1.44,-0.33 -1.6,-0.33 -0.32,0 -0.48,0.17 -0.48,0.65 0,0.32 0.16,0.64 0.48,0.8 0.16,0 0.96,0.16 1.44,0.32 1.13,0.32 1.13,0.32 2.25,0.64 1.12,0.16 1.28,0.16 1.76,0.32 0.32,-0.16 0.81,0 1.29,0.48 0.32,0.16 0.64,0.64 0.64,1.28 0,0.8 -0.16,1.76 -1.77,1.76 -0.96,0 -2.4,-0.64 -3.37,-0.96 -0.8,-0.32 -0.96,-0.32 -1.28,-0.32 -0.96,0 -1.76,0.64 -1.76,1.77 0,1.92 2.72,2.88 3.04,2.88 0.17,0 0.17,-0.32 0.17,-0.32 0,-0.32 0,-0.32 -0.33,-0.48 -1.6,-0.48 -2.24,-1.28 -2.24,-2.08 0,-0.33 0.16,-0.49 0.64,-0.49 0.48,0 0.8,0.16 1.12,0.32 2.73,1.13 3.21,1.13 3.85,1.13 2.25,0 2.57,-2.09 2.57,-3.21 0,-0.32 0,-1.28 -1.28,-2.08 0.8,-0.48 1.28,-1.6 1.28,-2.73 0,-1.76 -1.6,-2.56 -2.41,-2.88 C 2.41,-4.49 0,-4.97 -0.8,-4.97 c -1.44,0 -1.6,0.8 -1.6,0.96 0,0.48 0.48,1.12 1.12,1.12 0.32,0 0.48,-0.16 0.48,-0.32 0.48,-0.48 0.96,-0.8 1.61,-0.8 0.32,0 4.97,0.8 4.97,3.36 0,1.45 -1.29,1.45 -1.61,1.45 -0.64,0 -0.96,0 -1.92,-0.32 z"
         style="fill:#000000;fill-opacity:1;fill-rule:nonzero;stroke:none"
         id="path2803" /></g><g
       id="g2805"
       transform="matrix(0.26458333,0,0,0.26458333,66.306947,120.29086)"><path
         d="m 0,0 c -1.28,0 -1.92,0.48 -1.92,1.12 0,0.64 0.64,1.44 1.28,1.44 0.32,0 0.48,-0.16 0.8,-0.48 C 0.64,1.6 1.29,1.12 2.41,1.12 3.53,1.12 5.14,1.76 6.42,2.56 7.54,3.36 8.5,4.33 8.5,5.77 8.5,7.21 7.54,8.17 6.1,8.33 5.3,8.01 3.53,7.37 2.89,7.37 c -0.48,0 -0.64,0.16 -0.64,0.48 0,0.32 0,0.64 0.48,0.8 0.48,0.32 2.25,0.64 3.21,0.64 1.44,0.96 2.56,2.09 2.56,3.69 0,1.92 -1.6,2.4 -3.04,2.4 -3.53,0 -6.42,-2.72 -6.74,-2.72 -0.32,0 -0.64,0.16 -0.64,0.48 0,0.32 0.48,0.64 0.64,0.8 2.08,1.28 5.29,2.4 7.86,2.4 1.92,0 4.01,-0.64 4.01,-2.88 C 10.59,11.54 9.15,10.25 7.7,9.13 9.31,8.97 10.59,7.85 10.59,6.09 10.59,4 8.83,2.72 6.74,1.76 5.46,0.96 1.61,0 0,0 Z"
         style="fill:#000000;fill-opacity:1;fill-rule:nonzero;stroke:none"
         id="path2807" /></g><g
       id="g2809"
       transform="matrix(0.26458333,0,0,0.26458333,68.939553,119.01822)"><path
         d="m 0,0 c 0,-0.48 0,-2.08 -0.32,-3.04 -0.48,-1.45 -1.45,-1.77 -2.09,-1.77 -0.96,0 -1.6,1.13 -1.6,2.41 0,2.24 1.76,5.45 4.97,5.45 2.09,0 3.69,-1.29 3.69,-3.53 0,-3.2 -1.92,-4.81 -2.25,-4.81 0,0 -0.32,0.16 -0.32,0.32 0,0.16 0.16,0.16 0.32,0.32 1.77,1.61 1.77,3.85 1.77,4.17 0,1.12 -0.8,1.92 -2.41,1.92 -0.32,0 -0.64,0 -1.76,-0.16 z m -0.48,1.12 c -2.73,-0.8 -3.05,-3.04 -3.05,-3.52 0,-0.8 0.48,-1.61 1.12,-1.61 1.93,0 1.93,3.37 1.93,4.17 z"
         style="fill:#000000;fill-opacity:1;fill-rule:nonzero;stroke:none"
         id="path2811" /></g><g
       id="g2813"
       transform="matrix(0.26458333,0,0,0.26458333,60.875051,189.01903)"><path
         d="m 0,0 c 0.48,0 1.12,0.16 1.28,0.16 0.48,0 0.64,-0.32 0.64,-0.8 0,-0.32 -0.16,-0.8 -0.64,-0.96 -0.16,-0.16 -3.85,-0.96 -4.49,-1.12 -0.8,-0.32 -2.73,-0.8 -3.53,-0.97 -0.32,0 -1.6,-0.8 -2.25,-1.44 -0.16,-0.32 -0.96,-1.12 -0.96,-2.24 0,-0.8 0.32,-1.12 0.32,-1.12 0.16,0.8 0.8,1.44 1.61,1.44 0.48,0 0.96,-0.32 0.96,-1.12 0,-0.8 -0.64,-1.44 -1.61,-1.44 -0.96,0 -1.92,0.8 -1.92,2.24 0,1.76 1.44,3.04 2.25,3.52 -1.29,0.16 -2.25,1.29 -2.25,2.57 0,1.28 1.12,1.76 1.6,1.92 0.97,0.48 2.57,0.96 2.73,0.96 0.32,0 0.32,-0.32 0.32,-0.32 0,-0.32 -0.16,-0.32 -0.64,-0.48 -2.09,-0.48 -3.37,-1.12 -3.37,-2.08 0,-0.48 0.32,-0.8 1.28,-0.8 0.65,0 0.97,0 2.41,0.48 z"
         style="fill:#000000;fill-opacity:1;fill-rule:nonzero;stroke:none"
         id="path2815" /></g><g
       id="g2817"
       transform="matrix(0.26458333,0,0,0.26458333,60.79039,183.63477)"><path
         d="m 0,0 c -0.48,-0.16 -1.45,-0.32 -1.61,-0.32 -0.32,0 -0.48,0.32 -0.48,0.64 0,0.32 0.16,0.64 0.48,0.8 0.16,0.16 0.96,0.32 1.45,0.48 1.12,0.16 1.12,0.16 2.24,0.48 1.13,0.32 1.29,0.32 1.77,0.32 0.32,0 0.8,0.16 1.28,0.48 0.32,0.32 0.64,0.64 0.64,1.29 0,0.8 -0.16,1.76 -1.76,1.76 -0.97,0 -2.41,-0.48 -3.37,-0.8 -0.8,-0.48 -0.96,-0.48 -1.29,-0.48 -0.96,0 -1.76,0.8 -1.76,1.76 0,2.08 2.73,2.88 3.05,2.88 C 0.8,9.29 0.8,8.97 0.8,8.97 0.8,8.65 0.8,8.65 0.48,8.65 -1.13,8.17 -1.77,7.37 -1.77,6.57 c 0,-0.32 0.16,-0.48 0.64,-0.48 0.48,0 0.81,0.16 1.13,0.16 2.88,1.12 3.21,1.12 3.85,1.12 2.24,0 2.56,-2.08 2.56,-3.04 0,-0.32 0,-1.29 -1.28,-2.25 0.8,-0.32 1.28,-1.44 1.28,-2.56 0,-1.76 -1.6,-2.57 -2.24,-3.05 C 2.4,-4.33 0,-4.81 -0.81,-4.81 c -1.44,0 -1.6,0.8 -1.6,0.96 0,0.48 0.64,0.96 1.12,0.96 0.32,0 0.48,-0.16 0.48,-0.32 0.49,-0.48 0.97,-0.64 1.61,-0.64 0.32,0 4.97,0.8 4.97,3.21 0,1.6 -1.28,1.6 -1.6,1.6 C 3.53,0.96 3.21,0.8 2.24,0.64 Z"
         style="fill:#000000;fill-opacity:1;fill-rule:nonzero;stroke:none"
         id="path2819" /></g><g
       id="g2821"
       transform="matrix(0.26458333,0,0,0.26458333,22.052714,136.70217)"><path
         d="m 0,0 c -1.61,0 -1.93,0.64 -1.93,1.12 0,0.65 0.64,1.45 1.28,1.45 0.33,0 0.49,-0.16 0.81,-0.48 C 0.8,1.44 1.44,1.12 2.4,1.12 c 1.29,0 7.54,1.61 7.54,4.97 0,1.28 -0.96,1.92 -2.4,1.92 C 5.93,8.01 4.01,7.37 1.6,6.41 1.28,6.25 0.8,6.09 0.32,6.09 c -1.29,0 -2.25,0.96 -2.25,2.25 0,2.72 4.01,3.68 4.17,3.68 0.32,0 0.32,-0.32 0.32,-0.32 0,-0.32 0,-0.32 -0.48,-0.48 -2.89,-0.8 -3.37,-1.92 -3.37,-2.72 0,-0.16 0,-0.65 0.81,-0.65 0.64,0 1.44,0.16 1.92,0.49 3.21,1.12 4.49,1.44 5.62,1.44 3.04,0 3.52,-2.41 3.52,-3.69 C 10.58,1.44 1.44,0 0,0 Z"
         style="fill:#000000;fill-opacity:1;fill-rule:nonzero;stroke:none"
         id="path2823" /></g><g
       id="g2825"
       transform="matrix(0.26458333,0,0,0.26458333,26.508302,133.90552)"><path
         d="M 0,0 C 0,0 -0.16,0 -0.64,0.48 -4.01,4 -9.3,4.8 -13.47,4.8 -18.290001,4.8 -23.1,3.84 -26.629999,0.32 -26.950001,0 -26.950001,0 -27.110001,0 -27.27,0 -27.27,0.16 -27.27,0.32 c 0,0.32 1.76,2.72 5.29,4.32 3.05,1.45 6.1,1.77 8.51,1.77 2.08,0 5.45,-0.32 8.66,-1.77 3.37,-1.76 5.13,-4 5.13,-4.32 C 0.32,0.16 0.16,0 0,0 Z"
         style="fill:#000000;fill-opacity:1;fill-rule:nonzero;stroke:none"
         id="path2827" /></g><g
       id="g2829"
       transform="matrix(0.26458333,0,0,0.26458333,21.838401,131.99524)"><path
         d="m 0,0 v -2.72 c 0,-0.48 0,-0.8 -0.48,-0.8 -0.32,0 -0.32,0.32 -0.32,0.8 v 2.4 c -4.01,-0.96 -4.49,-1.12 -4.65,-1.12 -0.48,0 -0.8,0.32 -0.8,0.8 0,0.16 0,0.97 0.96,1.13 l 4.49,1.12 v 2.56 c 0,0.48 0,0.8 0.48,0.8 C 0,4.97 0,4.81 0,4.17 v -2.4 c 7.87,2.08 8.35,2.08 8.83,2.08 1.44,0 2.56,-0.96 2.56,-2.56 0,-2.73 -4.01,-4.33 -4.33,-4.33 -0.32,0 -0.32,0.16 -0.32,0.32 0,0.32 0.16,0.32 0.48,0.48 2.89,1.12 3.53,2.57 3.53,3.53 0,0.64 -0.32,0.8 -1.28,0.8 -0.64,0 -0.8,0 -1.28,-0.16 z"
         style="fill:#000000;fill-opacity:1;fill-rule:nonzero;stroke:none"
         id="path2831" /></g><g
       id="g2833"
       transform="matrix(0.26458333,0,0,0.26458333,22.944365,128.73292)"><path
         d="m 0,0 c -2.25,0 -5.46,0.32 -8.67,1.92 -3.37,1.6 -5.13,4 -5.13,4.33 0,0.16 0,0.16 0.16,0.16 0.16,0 0.16,0 0.64,-0.49 2.73,-2.72 7.22,-4.32 13,-4.32 4.65,0 9.62,1.12 12.99,4.49 0.32,0.32 0.48,0.32 0.48,0.32 0.16,0 0.32,0 0.32,-0.16 C 13.79,5.92 11.87,3.36 8.34,1.76 5.29,0.32 2.24,0 0,0 Z"
         style="fill:#000000;fill-opacity:1;fill-rule:nonzero;stroke:none"
         id="path2835" /></g><g
       id="g2893"
       transform="matrix(0.26458333,0,0,0.26458333,46.569036,134.53604)"><path
         d="m 0,0 c -5.61,0 -10.1,4.01 -10.1,9.14 0,4.96 4.49,9.13 10.1,9.13 5.62,0 9.95,-4.33 9.95,-9.13 C 9.95,4.01 5.62,0 0,0 Z m 9.31,9.14 c 0,2.72 -2.25,6.41 -9.31,6.41 -7.06,0 -9.46,-3.85 -9.46,-6.41 0,-2.89 2.57,-6.57 9.46,-6.57 7.06,0 9.31,3.84 9.31,6.57 z M -2.08,4.17 v 0.64 h 0.96 v 8.49 h -0.96 v 0.64 H 1.93 V 13.3 H 0.97 V 4.81 H 1.93 V 4.17 Z"
         style="fill:#000000;fill-opacity:1;fill-rule:nonzero;stroke:none"
         id="path2895" /></g><g
       id="g2897"
       transform="matrix(0.26458333,0,0,0.26458333,48.947637,132.96706)"><path
         d="m 0,0 c 0,-0.64 0,-2.08 -0.32,-3.2 -0.64,-1.44 -1.45,-1.6 -2.09,-1.6 -1.12,0 -1.76,0.96 -1.76,2.4 0,2.24 1.76,5.45 5.13,5.45 1.93,0 3.69,-1.28 3.69,-3.53 0,-3.2 -1.93,-4.81 -2.25,-4.81 -0.16,0 -0.32,0.16 -0.32,0.32 0,0.17 0,0.17 0.16,0.33 1.77,1.44 1.77,3.68 1.77,4.16 0,1.12 -0.64,1.92 -2.25,1.92 -0.32,0 -0.64,0 -1.76,-0.32 z m -0.48,0.96 c -2.89,-0.8 -3.05,-2.88 -3.05,-3.36 0,-0.96 0.32,-1.6 1.12,-1.6 1.93,0 1.93,3.2 1.93,4 z"
         style="fill:#000000;fill-opacity:1;fill-rule:nonzero;stroke:none"
         id="path2899" /></g><g
       id="g2901"
       transform="matrix(0.26458333,0,0,0.26458333,38.801744,79.166502)"><path
         d="m 0,0 c -5.62,0 -10.11,4.16 -10.11,9.13 0,4.97 4.33,9.3 10.11,9.3 5.61,0 9.94,-4.33 9.94,-9.3 C 9.94,4.16 5.61,0 0,0 Z m 9.3,9.13 c 0,2.73 -2.41,6.57 -9.3,6.57 -7.06,0 -9.47,-3.84 -9.47,-6.57 0,-2.72 2.41,-6.41 9.47,-6.41 7.06,0 9.3,3.85 9.3,6.41 z M -2.09,4.32 v 0.65 h 0.96 v 8.49 H -2.09 V 14.1 H 1.92 V 13.46 H 0.96 V 4.97 H 1.92 V 4.32 Z"
         style="fill:#000000;fill-opacity:1;fill-rule:nonzero;stroke:none"
         id="path2903" /></g><g
       id="g2905"
       transform="matrix(0.26458333,0,0,0.26458333,40.754364,76.070872)"><path
         d="m 0,0 c -0.49,-0.16 -1.45,-0.32 -1.61,-0.32 -0.32,0 -0.64,0.32 -0.64,0.64 0,0.32 0.32,0.64 0.64,0.8 0.16,0 0.96,0.16 1.45,0.32 C 0.96,1.76 0.96,1.76 2.08,2.08 3.04,2.24 3.2,2.24 3.85,2.4 4.17,2.24 4.49,2.4 5.13,2.88 5.45,3.2 5.77,3.52 5.77,4.17 5.77,4.97 5.45,5.93 4.01,5.93 3.04,5.93 1.6,5.45 0.64,4.97 -0.32,4.65 -0.49,4.65 -0.81,4.65 c -0.8,0 -1.6,0.8 -1.6,1.76 0,1.92 2.57,2.88 3.05,2.88 C 0.8,9.29 0.8,8.97 0.8,8.97 0.8,8.65 0.64,8.65 0.48,8.49 -1.13,8.01 -1.93,7.21 -1.93,6.41 c 0,-0.32 0.32,-0.48 0.8,-0.48 0.32,0 0.81,0.16 1.13,0.32 2.72,1.12 3.2,1.12 3.69,1.12 2.4,0 2.56,-2.08 2.56,-3.04 0,-0.48 0,-1.45 -1.28,-2.25 C 5.93,1.6 6.25,0.48 6.25,-0.64 6.25,-2.4 4.81,-3.21 4.01,-3.53 2.4,-4.33 0,-4.97 -0.97,-4.97 c -1.44,0 -1.44,0.8 -1.44,0.96 0,0.48 0.48,1.12 0.96,1.12 0.32,0 0.48,-0.16 0.64,-0.32 0.49,-0.48 0.97,-0.8 1.61,-0.8 0.16,0 4.97,0.8 4.97,3.37 C 5.77,0.8 4.33,0.8 4.01,0.8 3.53,0.8 3.2,0.8 2.08,0.48 Z"
         style="fill:#000000;fill-opacity:1;fill-rule:nonzero;stroke:none"
         id="path2907" /></g><g
       id="g2909"
       transform="matrix(0.26458333,0,0,0.26458333,66.732931,141.36228)"><path
         d="m 0,0 c -0.65,-0.16 -0.81,-0.16 -0.97,-0.64 0,-0.16 0,-1.12 0,-1.6 0,-2.89 0,-4.17 2.25,-4.17 0.32,0 1.44,0.16 2.25,0.32 0,0 0.32,0 0.48,0 0.16,0 0.32,0 0.32,-0.32 0,-0.32 -0.16,-0.32 -0.64,-0.32 l -4.82,-0.8 c 0,0 -0.32,0 -0.48,0 -0.32,0 -0.32,0.16 -0.32,0.64 V 8.49 c 0,0.65 0.16,0.65 0.64,0.81 l 4.82,1.76 c 0,0 0.48,0.16 0.48,0.16 0.16,0 0.32,-0.16 0.32,-0.32 0,-0.32 -0.16,-0.32 -0.48,-0.48 C -0.48,8.98 -0.97,8.17 -0.97,4.17 V 3.05 c 0,-0.8 0,-0.8 0.32,-0.8 0.17,0 0.49,0.16 0.49,0.16 L 14.6,6.09 c 1.12,0.16 1.440001,0.32 1.440001,3.21 0,0.96 0,1.28 0.479999,1.28 0.32,0 0.32,-0.32 0.32,-0.48 0,-0.8 0,-1.61 0,-2.41 0,-0.64 -0.16,-1.44 -0.16,-2.24 0,-0.8 0.16,-1.6 0.16,-2.24 0,-0.8 0,-1.77 0,-2.41 0,-0.32 0,-0.64 -0.479999,-0.64 -0.32,0 -0.32,0.16 -0.32,0.96 0,0.64 0,0.96 -0.160001,1.77 0,0.8 -0.16,0.96 -0.48,0.96 -0.16,0 -0.32,0 -0.64,-0.16 z"
         style="fill:#000000;fill-opacity:1;fill-rule:nonzero;stroke:none"
         id="path2911" /></g><g
       id="g2913"
       transform="matrix(0.26458333,0,0,0.26458333,71.103845,139.07363)"><path
         d="m 0,0 c 0,-0.48 0,-2.08 -0.32,-3.05 -0.48,-1.44 -1.44,-1.76 -2.09,-1.76 -0.96,0 -1.6,1.12 -1.6,2.4 0,2.25 1.76,5.45 5.13,5.45 1.93,0 3.53,-1.28 3.53,-3.52 0,-3.21 -1.92,-4.81 -2.08,-4.81 -0.16,0 -0.48,0.16 -0.48,0.32 0,0.16 0.16,0.16 0.32,0.32 1.76,1.6 1.76,3.85 1.76,4.17 0,1.12 -0.8,1.92 -2.41,1.92 -0.16,0 -0.64,0 -1.76,-0.16 z m -0.48,1.12 c -2.73,-0.8 -3.05,-3.04 -3.05,-3.53 0,-0.8 0.48,-1.6 1.12,-1.6 1.93,0 1.93,3.21 1.93,4.17 z"
         style="fill:#000000;fill-opacity:1;fill-rule:nonzero;stroke:none"
         id="path2915" /></g><path
       d="m 22.551108,239.27226 c 8.03764,0 14.51706,7.19078 14.51706,16.0514 0,8.86583 -6.47942,16.05658 -14.51706,16.05658 -7.99566,0 -14.51967,-7.19075 -14.51967,-16.05658 0,-8.86062 6.52401,-16.0514 14.51967,-16.0514 h 0.0419 z m 0.69789,-153.042652 -0.11028,-10.10638"
       style="fill:none;stroke:#000000;stroke-width:1.24648;stroke-linecap:butt;stroke-linejoin:miter;stroke-miterlimit:10;stroke-dasharray:none;stroke-opacity:1"
       id="path2563"
       sodipodi:nodetypes="csssscccc" /></g></svg>
