<?xml version="1.0" encoding="UTF-8" standalone="no"?>
<!-- Created with Inkscape (http://www.inkscape.org/) -->

<svg
   width="210mm"
   height="297mm"
   viewBox="0 0 210 297"
   version="1.1"
   id="svg5"
   xml:space="preserve"
   inkscape:version="1.2.1 (9c6d41e410, 2022-07-14)"
   sodipodi:docname="lvd.svg"
   inkscape:export-filename="lvd.pdf"
   inkscape:export-xdpi="96"
   inkscape:export-ydpi="96"
   xmlns:inkscape="http://www.inkscape.org/namespaces/inkscape"
   xmlns:sodipodi="http://sodipodi.sourceforge.net/DTD/sodipodi-0.dtd"
   xmlns="http://www.w3.org/2000/svg"
   xmlns:svg="http://www.w3.org/2000/svg"><sodipodi:namedview
     id="namedview7"
     pagecolor="#ffffff"
     bordercolor="#000000"
     borderopacity="0.25"
     inkscape:showpageshadow="2"
     inkscape:pageopacity="0.0"
     inkscape:pagecheckerboard="0"
     inkscape:deskcolor="#d1d1d1"
     inkscape:document-units="mm"
     showgrid="false"
     inkscape:zoom="1.5140529"
     inkscape:cx="331.23017"
     inkscape:cy="499.98253"
     inkscape:window-width="1920"
     inkscape:window-height="1094"
     inkscape:window-x="-11"
     inkscape:window-y="-11"
     inkscape:window-maximized="1"
     inkscape:current-layer="layer1" /><defs
     id="defs2"><marker
       style="overflow:visible"
       id="marker39606"
       refX="0"
       refY="0"
       orient="auto-start-reverse"
       inkscape:stockid="Arrow5"
       markerWidth="5.8874264"
       markerHeight="6.6094756"
       viewBox="0 0 5.8874262 6.6094758"
       inkscape:isstock="true"
       inkscape:collect="always"
       preserveAspectRatio="xMidYMid"><path
         transform="scale(0.5)"
         style="fill:context-stroke;fill-rule:evenodd;stroke:context-stroke;stroke-width:1pt"
         d="m 6,0 c -3,1 -7,3 -9,5 0,0 0,-4 2,-5 -2,-1 -2,-5 -2,-5 2,2 6,4 9,5 z"
         id="path39604" /></marker><marker
       style="overflow:visible"
       id="Arrow5"
       refX="0"
       refY="0"
       orient="auto-start-reverse"
       inkscape:stockid="Arrow5"
       markerWidth="5.8874264"
       markerHeight="6.6094756"
       viewBox="0 0 5.8874262 6.6094758"
       inkscape:isstock="true"
       inkscape:collect="always"
       preserveAspectRatio="xMidYMid"><path
         transform="scale(0.5)"
         style="fill:context-stroke;fill-rule:evenodd;stroke:context-stroke;stroke-width:1pt"
         d="m 6,0 c -3,1 -7,3 -9,5 0,0 0,-4 2,-5 -2,-1 -2,-5 -2,-5 2,2 6,4 9,5 z"
         id="path8893" /></marker><rect
       x="147.89205"
       y="351.81368"
       width="88.604927"
       height="106.84712"
       id="rect37832" /><rect
       x="217.7843"
       y="354.04507"
       width="158.97089"
       height="47.749499"
       id="rect35539" /><rect
       x="161.88245"
       y="333.08187"
       width="141.50156"
       height="67.548072"
       id="rect35029" /><rect
       x="114.71526"
       y="327.84107"
       width="171.78173"
       height="100.7398"
       id="rect34987" /><rect
       x="222.44279"
       y="354.04507"
       width="122.86761"
       height="68.712694"
       id="rect34945" /><rect
       x="221.27817"
       y="315.03023"
       width="159.5532"
       height="94.334376"
       id="rect34903" /><rect
       x="476.33037"
       y="363.36204"
       width="87.346645"
       height="73.371181"
       id="rect33596" /><rect
       x="133.34921"
       y="397.71839"
       width="157.80627"
       height="77.447358"
       id="rect30250" /><rect
       x="128.10841"
       y="384.90755"
       width="165.37631"
       height="99.575175"
       id="rect30208" /><rect
       x="123.44992"
       y="400.62994"
       width="170.0348"
       height="87.928956"
       id="rect30166" /><rect
       x="188.08644"
       y="419.84621"
       width="122.2853"
       height="86.182023"
       id="rect30072" /><rect
       x="168.87018"
       y="396.55377"
       width="121.12068"
       height="74.535803"
       id="rect30030" /><marker
       style="overflow:visible"
       id="marker9466"
       refX="0"
       refY="0"
       orient="auto"
       inkscape:stockid="Dot"
       markerWidth="5.4000001"
       markerHeight="5.4000001"
       viewBox="0 0 5.4 5.4"
       inkscape:isstock="true"
       inkscape:collect="always"
       preserveAspectRatio="xMidYMid"><path
         transform="scale(0.45)"
         style="fill:context-fill;fill-rule:evenodd;stroke:context-stroke;stroke-width:2"
         d="M 5,0 C 5,2.76 2.76,5 0,5 -2.76,5 -5,2.76 -5,0 c 0,-2.76 2.3,-5 5,-5 2.76,0 5,2.24 5,5 z"
         id="path9464"
         sodipodi:nodetypes="sssss" /></marker><marker
       style="overflow:visible"
       id="marker18518"
       refX="0"
       refY="0"
       orient="auto-start-reverse"
       inkscape:stockid="Arrow1L"
       markerWidth="8.75"
       markerHeight="5"
       viewBox="0 0 8.75 5"
       inkscape:isstock="true"
       inkscape:collect="always"
       preserveAspectRatio="xMidYMid"><path
         style="fill:context-stroke;fill-rule:evenodd;stroke:none"
         d="M 0,0 5,-5 -12.5,0 5,5 Z"
         id="path18516"
         transform="scale(-0.5)" /></marker><marker
       style="overflow:visible"
       id="Arrow1L"
       refX="0"
       refY="0"
       orient="auto-start-reverse"
       inkscape:stockid="Arrow1L"
       markerWidth="8.75"
       markerHeight="5"
       viewBox="0 0 8.75 5"
       inkscape:isstock="true"
       inkscape:collect="always"
       preserveAspectRatio="xMidYMid"><path
         style="fill:context-stroke;fill-rule:evenodd;stroke:none"
         d="M 0,0 5,-5 -12.5,0 5,5 Z"
         id="arrow1L"
         transform="scale(-0.5)" /></marker><rect
       x="261.1363"
       y="1021.66"
       width="149.16236"
       height="70.29021"
       id="rect1678" /><rect
       x="173.56673"
       y="352.74748"
       width="60.350696"
       height="23.391743"
       id="rect396" /><rect
       x="17.227232"
       y="626.96685"
       width="105.97358"
       height="59.512257"
       id="rect1206" /><rect
       x="-229.54594"
       y="482.63506"
       width="85.764418"
       height="54.653796"
       id="rect1150" /><rect
       x="17.227232"
       y="626.96686"
       width="105.97358"
       height="59.512257"
       id="rect1206-6" /><rect
       x="17.227232"
       y="626.96686"
       width="105.97358"
       height="59.512257"
       id="rect1206-4" /><rect
       x="17.227232"
       y="626.96686"
       width="105.97358"
       height="59.512257"
       id="rect1206-48" /><rect
       x="17.227232"
       y="626.96686"
       width="105.97358"
       height="59.512257"
       id="rect1206-3" /><rect
       x="17.227232"
       y="626.96686"
       width="105.97358"
       height="59.512257"
       id="rect1206-3-1" /><rect
       x="17.227232"
       y="626.96686"
       width="105.97358"
       height="59.512257"
       id="rect1206-3-4" /><rect
       x="17.227232"
       y="626.96686"
       width="105.97358"
       height="59.512257"
       id="rect1206-3-1-3" /><rect
       x="17.227232"
       y="626.96686"
       width="105.97358"
       height="59.512257"
       id="rect1206-3-4-7" /><font
       horiz-adv-x="1000"
       id="font4586"
       inkscape:label="Alpha"><font-face
         units-per-em="1000"
         ascent="750"
         cap-height="600"
         x-height="400"
         descent="200"
         id="font-face4588"
         font-family="SVGFont 1" /><missing-glyph
         d="M0,0h1000v1000h-1000z"
         id="missing-glyph4590" /></font><marker
       style="overflow:visible"
       id="marker18518-8"
       refX="0"
       refY="0"
       orient="auto-start-reverse"
       inkscape:stockid="Arrow1L"
       markerWidth="8.75"
       markerHeight="5"
       viewBox="0 0 8.75 5"
       inkscape:isstock="true"
       inkscape:collect="always"
       preserveAspectRatio="xMidYMid"><path
         style="fill:context-stroke;fill-rule:evenodd;stroke:none"
         d="M 0,0 5,-5 -12.5,0 5,5 Z"
         id="path18516-7"
         transform="scale(-0.5)" /></marker><marker
       style="overflow:visible"
       id="Arrow1L-7"
       refX="0"
       refY="0"
       orient="auto-start-reverse"
       inkscape:stockid="Arrow1L"
       markerWidth="8.75"
       markerHeight="5"
       viewBox="0 0 8.75 5"
       inkscape:isstock="true"
       inkscape:collect="always"
       preserveAspectRatio="xMidYMid"><path
         style="fill:context-stroke;fill-rule:evenodd;stroke:none"
         d="M 0,0 5,-5 -12.5,0 5,5 Z"
         id="arrow1L-9"
         transform="scale(-0.5)" /></marker><marker
       style="overflow:visible"
       id="marker18518-6"
       refX="0"
       refY="0"
       orient="auto-start-reverse"
       inkscape:stockid="Arrow1L"
       markerWidth="8.75"
       markerHeight="5"
       viewBox="0 0 8.75 5"
       inkscape:isstock="true"
       inkscape:collect="always"
       preserveAspectRatio="xMidYMid"><path
         style="fill:context-stroke;fill-rule:evenodd;stroke:none"
         d="M 0,0 5,-5 -12.5,0 5,5 Z"
         id="path18516-8"
         transform="scale(-0.5)" /></marker><rect
       x="17.227232"
       y="626.96686"
       width="105.97358"
       height="59.512257"
       id="rect1206-3-40" /><rect
       x="17.227232"
       y="626.96686"
       width="105.97358"
       height="59.512257"
       id="rect1206-7" /><rect
       x="17.227232"
       y="626.96686"
       width="105.97358"
       height="59.512257"
       id="rect1206-3-40-4" /><rect
       x="17.227232"
       y="626.96686"
       width="105.97358"
       height="59.512257"
       id="rect1206-3-40-9" /><rect
       x="17.227232"
       y="626.96686"
       width="105.97358"
       height="59.512257"
       id="rect1206-3-40-49" /><rect
       x="17.227232"
       y="626.96686"
       width="105.97358"
       height="59.512257"
       id="rect1206-3-40-1" /><rect
       x="161.88245"
       y="333.08188"
       width="141.50156"
       height="67.548073"
       id="rect35029-2" /><rect
       x="17.227232"
       y="626.96686"
       width="105.97358"
       height="59.512257"
       id="rect1206-3-40-1-0" /><rect
       x="161.88245"
       y="333.08188"
       width="141.50156"
       height="67.548073"
       id="rect35029-2-2" /><rect
       x="17.227232"
       y="626.96686"
       width="105.97358"
       height="59.512257"
       id="rect1206-3-40-1-3" /><rect
       x="161.88245"
       y="333.08188"
       width="141.50156"
       height="67.548073"
       id="rect35029-2-5" /><pattern
       id="EMFhbasepattern"
       patternUnits="userSpaceOnUse"
       width="6"
       height="6"
       x="0"
       y="0" /></defs><g
     inkscape:label="Livello 1"
     inkscape:groupmode="layer"
     id="layer1"><g
       id="g10453"
       transform="matrix(1.586937,0,0,1.6381538,-90.688981,-102.81288)"
       style="stroke-width:0.24808632;stroke-dasharray:none"><path
         style="fill:none;stroke:#000000;stroke-width:0.24808632;stroke-dasharray:none;stroke-opacity:1"
         d="M 184.59743,168.0163 H 66.624345 L 184.48504,146.48101"
         id="path1596"
         sodipodi:nodetypes="ccc" /><path
         style="fill:none;stroke:#000000;stroke-width:0.248086;stroke-dasharray:none;stroke-opacity:1;marker-start:url(#Arrow5);marker-end:url(#marker39606)"
         d="m 102.18418,167.08178 c 1.08841,-2.39278 -0.42616,-4.04829 -0.84065,-4.49866"
         id="path1598"
         sodipodi:nodetypes="cc" /></g><g
       id="g35794"><path
         style="fill:none;stroke:#000000;stroke-width:0.4;stroke-dasharray:none;stroke-opacity:1"
         d="m 155.93868,138.8149 -57.456472,11.37249 c -24.091404,-7.24473 -65.142177,-0.18605 -65.142177,-0.18605 l 58.234373,-15.25056 c 28.141216,-6.57768 63.131246,-11.3893 77.500476,-6.99879 15.28694,4.48501 -10.18893,10.32469 -10.18893,10.32469"
         id="path4615"
         sodipodi:nodetypes="cccccc" /><ellipse
         style="fill:#ffffff;fill-opacity:1;stroke:#000000;stroke-width:0.4;stroke-dasharray:none;stroke-opacity:1"
         id="path1600-7"
         ry="5.8993092"
         rx="5.7262931"
         cy="139.78137"
         cx="155.80461" /><ellipse
         style="fill:#ffffff;fill-opacity:1;stroke:#000000;stroke-width:0.4;stroke-dasharray:none;stroke-opacity:1"
         id="path1600"
         ry="5.8993092"
         rx="5.7262931"
         cy="149.78865"
         cx="102.98801" /><path
         style="fill:none;fill-opacity:1;stroke:#000000;stroke-width:0.4;stroke-dasharray:none;stroke-opacity:1"
         d="m 141.98083,126.6356 c -8.74364,-5.41551 -16.4672,-4.36249 -16.4672,-4.36249 0,0 -11.25943,1.33142 -13.84409,3.15903 -3.11239,2.20078 -3.7889,6.01722 -3.7889,6.01722"
         id="path6068"
         sodipodi:nodetypes="ccsc" /></g><g
       id="g2821"
       transform="matrix(0,0.22532293,-0.22602632,0,85.181944,122.0771)"><path
         d="m 0,0 c -1.61,0 -1.93,0.64 -1.93,1.12 0,0.65 0.64,1.45 1.28,1.45 0.33,0 0.49,-0.16 0.81,-0.48 C 0.8,1.44 1.44,1.12 2.4,1.12 c 1.29,0 7.54,1.61 7.54,4.97 0,1.28 -0.96,1.92 -2.4,1.92 C 5.93,8.01 4.01,7.37 1.6,6.41 1.28,6.25 0.8,6.09 0.32,6.09 c -1.29,0 -2.25,0.96 -2.25,2.25 0,2.72 4.01,3.68 4.17,3.68 0.32,0 0.32,-0.32 0.32,-0.32 0,-0.32 0,-0.32 -0.48,-0.48 -2.89,-0.8 -3.37,-1.92 -3.37,-2.72 0,-0.16 0,-0.65 0.81,-0.65 0.64,0 1.44,0.16 1.92,0.49 3.21,1.12 4.49,1.44 5.62,1.44 3.04,0 3.52,-2.41 3.52,-3.69 C 10.58,1.44 1.44,0 0,0 Z"
         style="fill:#000000;fill-opacity:1;fill-rule:nonzero;stroke:none"
         id="path2823" /></g><g
       id="g2825"
       transform="matrix(0,0.22532293,-0.22602632,0,87.571054,125.87155)"><path
         d="M 0,0 C 0,0 -0.16,0 -0.64,0.48 -4.01,4 -9.3,4.8 -13.47,4.8 -18.290001,4.8 -23.1,3.84 -26.629999,0.32 -26.950001,0 -26.950001,0 -27.110001,0 -27.27,0 -27.27,0.16 -27.27,0.32 c 0,0.32 1.76,2.72 5.29,4.32 3.05,1.45 6.1,1.77 8.51,1.77 2.08,0 5.45,-0.32 8.66,-1.77 3.37,-1.76 5.13,-4 5.13,-4.32 C 0.32,0.16 0.16,0 0,0 Z"
         style="fill:#000000;fill-opacity:1;fill-rule:nonzero;stroke:none"
         id="path2827" /></g><g
       id="g2829"
       transform="matrix(0,0.22532293,-0.22602632,0,89.202954,121.8946)"><path
         d="m 0,0 v -2.72 c 0,-0.48 0,-0.8 -0.48,-0.8 -0.32,0 -0.32,0.32 -0.32,0.8 v 2.4 c -4.01,-0.96 -4.49,-1.12 -4.65,-1.12 -0.48,0 -0.8,0.32 -0.8,0.8 0,0.16 0,0.97 0.96,1.13 l 4.49,1.12 v 2.56 c 0,0.48 0,0.8 0.48,0.8 C 0,4.97 0,4.81 0,4.17 v -2.4 c 7.87,2.08 8.35,2.08 8.83,2.08 1.44,0 2.56,-0.96 2.56,-2.56 0,-2.73 -4.01,-4.33 -4.33,-4.33 -0.32,0 -0.32,0.16 -0.32,0.32 0,0.32 0.16,0.32 0.48,0.48 2.89,1.12 3.53,2.57 3.53,3.53 0,0.64 -0.32,0.8 -1.28,0.8 -0.64,0 -0.8,0 -1.28,-0.16 z"
         style="fill:#000000;fill-opacity:1;fill-rule:nonzero;stroke:none"
         id="path2831" /></g><g
       id="g2833"
       transform="matrix(0,0.22532293,-0.22602632,0,91.989864,122.83645)"><path
         d="m 0,0 c -2.25,0 -5.46,0.32 -8.67,1.92 -3.37,1.6 -5.13,4 -5.13,4.33 0,0.16 0,0.16 0.16,0.16 0.16,0 0.16,0 0.64,-0.49 2.73,-2.72 7.22,-4.32 13,-4.32 4.65,0 9.62,1.12 12.99,4.49 0.32,0.32 0.48,0.32 0.48,0.32 0.16,0 0.32,0 0.32,-0.16 C 13.79,5.92 11.87,3.36 8.34,1.76 5.29,0.32 2.24,0 0,0 Z"
         style="fill:#000000;fill-opacity:1;fill-rule:nonzero;stroke:none"
         id="path2835" /></g><path
       style="fill:#000000;stroke:#000000;stroke-width:0.5;stroke-dasharray:none;stroke-opacity:1;fill-opacity:1;marker-end:url(#Arrow1L)"
       d="m 155.94208,140.03327 28.23936,-5.67194"
       id="path1596-5"
       sodipodi:nodetypes="cc" /><path
       style="fill:#000000;fill-opacity:1;stroke:#000000;stroke-width:0.3;stroke-dasharray:none;stroke-opacity:1;marker-end:url(#Arrow1L-7)"
       d="m 95.505577,120.99326 28.239363,-5.67194"
       id="path1596-5-4"
       sodipodi:nodetypes="cc" /><path
       style="fill:#000000;fill-opacity:1;stroke:#000000;stroke-width:0.5;stroke-dasharray:none;stroke-opacity:1;marker-start:url(#marker18518)"
       d="m 141.881,124.08762 28.23936,-5.67194"
       id="path1596-5-1"
       sodipodi:nodetypes="cc" /><path
       style="fill:#000000;fill-opacity:1;stroke:#000000;stroke-width:0.5;stroke-dasharray:none;stroke-opacity:1;marker-start:url(#marker18518-6)"
       d="m 114.24068,140.90931 5.17566,-1.28559"
       id="path1596-5-1-5"
       sodipodi:nodetypes="cc" /><path
       style="fill:#000000;fill-opacity:1;stroke:#000000;stroke-width:0.5;stroke-dasharray:none;stroke-opacity:1;marker-start:url(#marker18518-8)"
       d="m 74.480575,155.7663 28.239365,-5.67194"
       id="path1596-5-1-7"
       sodipodi:nodetypes="cc" /><path
       style="fill:#000000;fill-opacity:1;stroke:#000000;stroke-width:0.5;stroke-dasharray:none;stroke-opacity:1;marker-start:url(#marker9466);marker-end:url(#marker18518-8)"
       d="m 118.85585,139.93862 v 23.91267"
       id="path19735" /><text
       xml:space="preserve"
       transform="scale(0.26458333)"
       id="text30028"
       style="font-style:italic;font-variant:normal;font-weight:normal;font-stretch:normal;font-size:26.6667px;font-family:'Times New Roman';-inkscape-font-specification:'Times New Roman, Italic';font-variant-ligatures:normal;font-variant-caps:normal;font-variant-numeric:normal;font-variant-east-asian:normal;white-space:pre;shape-inside:url(#rect30030);display:inline;fill:#000000;fill-opacity:0;stroke:#000000;stroke-width:1.88976;stroke-dasharray:none;stroke-opacity:1" /><text
       xml:space="preserve"
       transform="scale(0.26458333)"
       id="text30070"
       style="font-style:italic;font-variant:normal;font-weight:normal;font-stretch:normal;font-size:24px;font-family:'Times New Roman';-inkscape-font-specification:'Times New Roman, Italic';font-variant-ligatures:normal;font-variant-caps:normal;font-variant-numeric:normal;font-variant-east-asian:normal;white-space:pre;shape-inside:url(#rect30072);display:inline;fill:#000000;fill-opacity:0;stroke:#000000;stroke-width:1.88976;stroke-dasharray:none;stroke-opacity:1" /><text
       xml:space="preserve"
       transform="scale(0.26458333)"
       id="text30164"
       style="font-style:italic;font-variant:normal;font-weight:normal;font-stretch:normal;font-family:'Times New Roman';-inkscape-font-specification:'Times New Roman, Italic';font-variant-ligatures:normal;font-variant-caps:normal;font-variant-numeric:normal;font-variant-east-asian:normal;baseline-shift:baseline;white-space:pre;shape-inside:url(#rect30166);display:inline;fill:#000000;fill-opacity:0;stroke:#000000;stroke-width:1.88976;stroke-dasharray:none;stroke-opacity:1" /><text
       xml:space="preserve"
       transform="scale(0.26458333)"
       id="text30206"
       style="font-style:normal;font-variant:normal;font-weight:normal;font-stretch:normal;font-size:24px;font-family:'Times New Roman';-inkscape-font-specification:'Times New Roman, Normal';font-variant-ligatures:normal;font-variant-caps:normal;font-variant-numeric:normal;font-variant-east-asian:normal;white-space:pre;shape-inside:url(#rect30208);display:inline;fill:#000000;fill-opacity:0;stroke:#000000;stroke-width:0.755906;stroke-dasharray:none;stroke-opacity:1" /><text
       xml:space="preserve"
       transform="matrix(0.26458333,0,0,0.26458333,99.418534,-30.471613)"
       id="text1204-2"
       style="font-style:normal;font-variant:normal;font-weight:normal;font-stretch:normal;font-size:18.6667px;font-family:'Times New Roman';-inkscape-font-specification:'Times New Roman, Normal';font-variant-ligatures:normal;font-variant-caps:normal;font-variant-numeric:normal;font-variant-east-asian:normal;letter-spacing:0.5px;white-space:pre;shape-inside:url(#rect1206-3-40);display:inline;fill:#000000;stroke-width:1.00157;stroke-dasharray:none"><tspan
         x="17.226562"
         y="643.53575"
         id="tspan1694"><tspan
           style="font-size:16px"
           id="tspan1692">grav</tspan></tspan></text><text
       xml:space="preserve"
       transform="matrix(0.26458333,0,0,0.26458333,128.39961,-68.596682)"
       id="text1204-2-5"
       style="font-style:italic;font-variant:normal;font-weight:normal;font-stretch:normal;font-size:18.6667px;font-family:'Times New Roman';-inkscape-font-specification:'Times New Roman, Italic';font-variant-ligatures:normal;font-variant-caps:normal;font-variant-numeric:normal;font-variant-east-asian:normal;white-space:pre;shape-inside:url(#rect1206-3-40-4);display:inline;fill:#000000;stroke-width:1.00157;stroke-dasharray:none" /><g
       id="g2677"
       transform="matrix(0.11051632,0,0,0.19885412,104.8525,-2.7672918)"><path
         d="m 372.62,702.62 v -0.32001 h 0.48001 l 90.97,16.34002 v 0.32001 h -0.33002 z"
         style="fill:#000000;fill-opacity:1;fill-rule:nonzero;stroke:none"
         id="path2679" /></g><g
       id="g2681"
       transform="matrix(0.11051632,0,0,0.19885412,104.8525,-2.7672918)"><path
         d="m 372.62,702.62 v -0.32001 h 0.48001 l 90.97,16.34002 v 0.32001 h -0.33002"
         style="fill:none;stroke:#000000;stroke-width:0.963;stroke-linecap:butt;stroke-linejoin:miter;stroke-miterlimit:4;stroke-dasharray:none;stroke-opacity:1"
         id="path2683" /></g><g
       id="g2685"
       transform="matrix(0.11051632,0,0,0.19885412,104.8525,-2.7672918)"><path
         d="m 363.48001,700.53003 28.87,5.28998"
         style="fill:none;stroke:#000000;stroke-width:0.963;stroke-linecap:butt;stroke-linejoin:miter;stroke-miterlimit:4;stroke-dasharray:none;stroke-opacity:1"
         id="path2687" /></g><g
       id="g2689"
       transform="matrix(0.11051632,0,0,0.19885412,148.03675,137.52429)"><path
         d="m 0,0 -2.57,-6.73 h 0.16 l 9.15,5.77 c 3.37,1.28 6.58,2.72 9.94,4.17 C 13.16,3.37 9.47,3.37 5.94,3.53 L -4.65,5.61 -4.81,5.45 Z"
         style="fill:#000000;fill-opacity:1;fill-rule:nonzero;stroke:none"
         id="path2691" /></g><g
       id="g2693"
       transform="matrix(0.11051632,0,0,0.19885412,148.14285,137.58792)"><path
         d="m 0,0 -1.12,-2.88 0.16,-0.16 3.85,2.56 C 4.33,0 5.62,0.64 7.06,1.28 c -1.44,0 -3.05,0 -4.49,0.16 l -4.49,0.81 h -0.16 z"
         style="fill:#000000;fill-opacity:1;fill-rule:nonzero;stroke:none"
         id="path2695" /></g><g
       id="g2813"
       transform="matrix(0,0.21431663,-0.20748912,0,138.93975,135.02506)"><path
         d="m 0,0 c 0.48,0 1.12,0.16 1.28,0.16 0.48,0 0.64,-0.32 0.64,-0.8 0,-0.32 -0.16,-0.8 -0.64,-0.96 -0.16,-0.16 -3.85,-0.96 -4.49,-1.12 -0.8,-0.32 -2.73,-0.8 -3.53,-0.97 -0.32,0 -1.6,-0.8 -2.25,-1.44 -0.16,-0.32 -0.96,-1.12 -0.96,-2.24 0,-0.8 0.32,-1.12 0.32,-1.12 0.16,0.8 0.8,1.44 1.61,1.44 0.48,0 0.96,-0.32 0.96,-1.12 0,-0.8 -0.64,-1.44 -1.61,-1.44 -0.96,0 -1.92,0.8 -1.92,2.24 0,1.76 1.44,3.04 2.25,3.52 -1.29,0.16 -2.25,1.29 -2.25,2.57 0,1.28 1.12,1.76 1.6,1.92 0.97,0.48 2.57,0.96 2.73,0.96 0.32,0 0.32,-0.32 0.32,-0.32 0,-0.32 -0.16,-0.32 -0.64,-0.48 -2.09,-0.48 -3.37,-1.12 -3.37,-2.08 0,-0.48 0.32,-0.8 1.28,-0.8 0.65,0 0.97,0 2.41,0.48 z"
         style="fill:#000000;fill-opacity:1;fill-rule:nonzero;stroke:none"
         id="path2815" /></g><text
       xml:space="preserve"
       transform="matrix(0.20748912,0,0,0.21431663,136.75163,-1.2783244)"
       id="text1204"
       style="font-style:normal;font-variant:normal;font-weight:normal;font-stretch:normal;font-size:18.6667px;font-family:'Times New Roman';-inkscape-font-specification:'Times New Roman, Normal';font-variant-ligatures:normal;font-variant-caps:normal;font-variant-numeric:normal;font-variant-east-asian:normal;white-space:pre;shape-inside:url(#rect1206-7);display:inline;fill:#000000"><tspan
         x="17.226562"
         y="643.53575"
         id="tspan1696">w</tspan></text><text
       xml:space="preserve"
       transform="scale(0.26458333)"
       id="text33594"
       style="font-style:italic;font-variant:normal;font-weight:normal;font-stretch:normal;font-size:18.6667px;font-family:'Times New Roman';-inkscape-font-specification:'Times New Roman, Italic';font-variant-ligatures:normal;font-variant-caps:normal;font-variant-numeric:normal;font-variant-east-asian:normal;white-space:pre;shape-inside:url(#rect33596);display:inline;fill:#000000;fill-opacity:0;stroke:#000000;stroke-width:1.00157;stroke-dasharray:none;stroke-opacity:1" /><text
       xml:space="preserve"
       transform="scale(0.26458333)"
       id="text34901"
       style="font-style:italic;font-variant:normal;font-weight:normal;font-stretch:normal;font-size:18.6667px;font-family:'Times New Roman';-inkscape-font-specification:'Times New Roman, Italic';font-variant-ligatures:normal;font-variant-caps:normal;font-variant-numeric:normal;font-variant-east-asian:normal;white-space:pre;shape-inside:url(#rect34903);display:inline;fill:#000000;fill-opacity:0;stroke:#000000;stroke-width:1.13386;stroke-dasharray:none;stroke-opacity:1" /><text
       xml:space="preserve"
       transform="scale(0.26458333)"
       id="text34943"
       style="font-style:italic;font-variant:normal;font-weight:normal;font-stretch:normal;font-size:18.6667px;font-family:'Times New Roman';-inkscape-font-specification:'Times New Roman, Italic';font-variant-ligatures:normal;font-variant-caps:normal;font-variant-numeric:normal;font-variant-east-asian:normal;white-space:pre;shape-inside:url(#rect34945);display:inline;fill:#000000;fill-opacity:0;stroke:#000000;stroke-width:1.13386;stroke-dasharray:none;stroke-opacity:1" /><text
       xml:space="preserve"
       transform="scale(0.26458333)"
       id="text34985"
       style="font-style:normal;font-variant:normal;font-weight:normal;font-stretch:normal;font-size:18.6667px;font-family:'Times New Roman';-inkscape-font-specification:'Times New Roman, Normal';font-variant-ligatures:no-contextual;font-variant-caps:normal;font-variant-numeric:normal;font-variant-east-asian:normal;white-space:pre;shape-inside:url(#rect34987);display:inline;fill:#000000;fill-opacity:0;stroke:#000000;stroke-width:1.13386;stroke-dasharray:none;stroke-opacity:1" /><text
       xml:space="preserve"
       transform="matrix(0.26458333,0,0,0.26458333,58.546515,44.372095)"
       id="text35027"
       style="font-style:italic;font-variant:normal;font-weight:normal;font-stretch:normal;font-size:24px;font-family:'Times New Roman';-inkscape-font-specification:'Times New Roman, Italic';font-variant-ligatures:no-common-ligatures;font-variant-caps:normal;font-variant-numeric:normal;font-variant-east-asian:normal;white-space:pre;shape-inside:url(#rect35029);display:inline;fill:#000000;fill-opacity:0;stroke:#000000;stroke-width:0;stroke-dasharray:none;stroke-opacity:1"><tspan
         x="161.88281"
         y="354.39104"
         id="tspan1700"><tspan
           style="fill-opacity:1"
           id="tspan1698">F</tspan></tspan></text><text
       xml:space="preserve"
       transform="matrix(0.26458333,0,0,0.26458333,58.094923,-11.87526)"
       id="text1204-2-2"
       style="font-style:normal;font-variant:normal;font-weight:normal;font-stretch:normal;font-size:18.6667px;font-family:'Times New Roman';-inkscape-font-specification:'Times New Roman, Normal';font-variant-ligatures:normal;font-variant-caps:normal;font-variant-numeric:normal;font-variant-east-asian:normal;letter-spacing:0.5px;white-space:pre;shape-inside:url(#rect1206-3-40-1);display:inline;fill:#000000;stroke-width:1.00157;stroke-dasharray:none"><tspan
         x="17.226562"
         y="643.53575"
         id="tspan1702">roll</tspan></text><text
       xml:space="preserve"
       transform="matrix(0.26458333,0,0,0.26458333,17.222899,62.968448)"
       id="text35027-8"
       style="font-style:italic;font-variant:normal;font-weight:normal;font-stretch:normal;font-size:24px;font-family:'Times New Roman';-inkscape-font-specification:'Times New Roman, Italic';font-variant-ligatures:no-common-ligatures;font-variant-caps:normal;font-variant-numeric:normal;font-variant-east-asian:normal;white-space:pre;shape-inside:url(#rect35029-2);display:inline;fill:#000000;fill-opacity:0;stroke:#000000;stroke-width:0;stroke-dasharray:none;stroke-opacity:1"><tspan
         x="161.88281"
         y="354.39104"
         id="tspan1706"><tspan
           style="fill-opacity:1"
           id="tspan1704">F</tspan></tspan></text><text
       xml:space="preserve"
       transform="matrix(0.26458333,0,0,0.26458333,169.09326,-52.474038)"
       id="text1204-2-2-3"
       style="font-style:normal;font-variant:normal;font-weight:normal;font-stretch:normal;font-size:18.6667px;font-family:'Times New Roman';-inkscape-font-specification:'Times New Roman, Normal';font-variant-ligatures:normal;font-variant-caps:normal;font-variant-numeric:normal;font-variant-east-asian:normal;letter-spacing:0.5px;white-space:pre;shape-inside:url(#rect1206-3-40-1-0);display:inline;fill:#000000;stroke-width:1.00157;stroke-dasharray:none"><tspan
         x="17.226562"
         y="643.53575"
         id="tspan1708">aero</tspan></text><text
       xml:space="preserve"
       transform="matrix(0.26458333,0,0,0.26458333,128.22123,22.369671)"
       id="text35027-8-9"
       style="font-style:italic;font-variant:normal;font-weight:normal;font-stretch:normal;font-size:24px;font-family:'Times New Roman';-inkscape-font-specification:'Times New Roman, Italic';font-variant-ligatures:no-common-ligatures;font-variant-caps:normal;font-variant-numeric:normal;font-variant-east-asian:normal;white-space:pre;shape-inside:url(#rect35029-2-2);display:inline;fill:#000000;fill-opacity:0;stroke:#000000;stroke-width:0;stroke-dasharray:none;stroke-opacity:1"><tspan
         x="161.88281"
         y="354.39104"
         id="tspan1712"><tspan
           style="fill-opacity:1"
           id="tspan1710">F</tspan></tspan></text><text
       xml:space="preserve"
       transform="matrix(0.26458333,0,0,0.26458333,184.48676,-38.260343)"
       id="text1204-2-2-1"
       style="font-style:normal;font-variant:normal;font-weight:normal;font-stretch:normal;font-size:18.6667px;font-family:'Times New Roman';-inkscape-font-specification:'Times New Roman, Normal';font-variant-ligatures:normal;font-variant-caps:normal;font-variant-numeric:normal;font-variant-east-asian:normal;letter-spacing:0.5px;white-space:pre;shape-inside:url(#rect1206-3-40-1-3);display:inline;fill:#000000;stroke-width:1.00157;stroke-dasharray:none"><tspan
         x="17.226562"
         y="643.53575"
         id="tspan1714">trac</tspan></text><text
       xml:space="preserve"
       transform="matrix(0.26458333,0,0,0.26458333,143.61474,36.583365)"
       id="text35027-8-1"
       style="font-style:italic;font-variant:normal;font-weight:normal;font-stretch:normal;font-size:24px;font-family:'Times New Roman';-inkscape-font-specification:'Times New Roman, Italic';font-variant-ligatures:no-common-ligatures;font-variant-caps:normal;font-variant-numeric:normal;font-variant-east-asian:normal;white-space:pre;shape-inside:url(#rect35029-2-5);display:inline;fill:#000000;fill-opacity:0;stroke:#000000;stroke-width:0;stroke-dasharray:none;stroke-opacity:1"><tspan
         x="161.88281"
         y="354.39104"
         id="tspan1718"><tspan
           style="fill-opacity:1"
           id="tspan1716">F</tspan></tspan></text><text
       xml:space="preserve"
       transform="scale(0.26458333)"
       id="text35537"
       style="font-style:normal;font-variant:normal;font-weight:normal;font-stretch:normal;font-size:16px;font-family:'Times New Roman';-inkscape-font-specification:'Times New Roman, Normal';font-variant-ligatures:normal;font-variant-caps:normal;font-variant-numeric:normal;font-variant-east-asian:normal;white-space:pre;shape-inside:url(#rect35539);display:inline;fill:#000000;fill-opacity:1;stroke:#000000;stroke-width:0;stroke-dasharray:none;stroke-opacity:1" /><g
       inkscape:label=""
       transform="translate(129.13878,87.77533)"
       id="g37167">
  
  
  
  
  
  
  
  
  
  
  
  
  
  
  
<text
   xml:space="preserve"
   transform="matrix(0.26458333,0,0,0.26458333,-105.23627,-15.685997)"
   id="text37830"
   style="font-style:normal;font-variant:normal;font-weight:normal;font-stretch:normal;font-size:16px;font-family:'Times New Roman';-inkscape-font-specification:'Times New Roman, Normal';font-variant-ligatures:normal;font-variant-caps:normal;font-variant-numeric:normal;font-variant-east-asian:normal;white-space:pre;shape-inside:url(#rect37832);display:inline;fill:#000000;fill-opacity:1;stroke:#000000;stroke-width:0;stroke-dasharray:none;stroke-opacity:1"><tspan
     x="147.89258"
     y="368.38341"
     id="tspan1722"><tspan
       style="font-size:18.6667px"
       id="tspan1720">α</tspan></tspan></text></g></g></svg>
